<mxfile host="app.diagrams.net" modified="2024-02-03T10:42:56.850Z" agent="Mozilla/5.0 (Windows NT 10.0; Win64; x64; rv:122.0) Gecko/20100101 Firefox/122.0" version="23.1.1" etag="sHtEa3Y-I9STEZnzDqu-" type="github">
  <diagram name="Page-1" id="9vKn2oZjl6vi_cO4X0rj">
    <mxGraphModel>
      <root>
        <mxCell id="0" />
        <mxCell id="1" parent="0" />
      </root>
    </mxGraphModel>
  </diagram>
</mxfile>
